<svg xmlns="http://www.w3.org/2000/svg" viewBox="0 0 212.64 212.65">
    <path fill="currentColor" d="M110.7,105.86h-7.06a7.07,7.07,0,0,0-7.06,7.06,7.14,7.14,0,0,0,7.06,7.06c2.41.08,4.76.07,7.06,0a7.06,7.06,0,0,0,0-14.12Z"/>
    <path fill="currentColor" d="M106.32,0A106.33,106.33,0,1,0,212.64,106.33,106.32,106.32,0,0,0,106.32,0Zm0,205.55a99.23,99.23,0,1,1,99.23-99.22A99.23,99.23,0,0,1,106.32,205.55Z"/>
    <path fill="currentColor" d="M159,167a8.47,8.47,0,0,1-15.62-.87L106.31,60.36,69.25,166.09a8.47,8.47,0,1,1-16-5.6L98.32,32a6.63,6.63,0,0,1,.36-.87,8.46,8.46,0,0,1,15.53.63l.09.24,45.07,128.51A8.45,8.45,0,0,1,159,167Z"/>
</svg>