<svg xmlns="http://www.w3.org/2000/svg" width="64" height="64" fill="none">
    <rect width="64" height="64" fill="#ECFAFE" rx="19.2"/>
    <g clip-path="url(#a)">
        <path fill="#1F84A3" d="M30.988 16.825a1.6 1.6 0 0 1 2.022 0l1.27 1.035c.399.326.93.44 1.428.305l1.577-.426a1.6 1.6 0 0 1 1.845.822l.745 1.474a1.6 1.6 0 0 0 1.178.858l1.62.257a1.6 1.6 0 0 1 1.348 1.498l.085 1.662a1.6 1.6 0 0 0 .725 1.259l1.386.904a1.6 1.6 0 0 1 .62 1.912l-.596 1.559a1.6 1.6 0 0 0 .151 1.44l.906 1.4a1.6 1.6 0 0 1-.21 1.998l-1.173 1.178a1.6 1.6 0 0 0-.447 1.38l.261 1.647a1.6 1.6 0 0 1-1.005 1.743l-1.538.592a1.6 1.6 0 0 0-.971 1.083l-.426 1.603a1.6 1.6 0 0 1-1.632 1.187l-1.633-.088a1.6 1.6 0 0 0-1.333.595l-1.03 1.282a1.6 1.6 0 0 1-1.978.42l-1.453-.746a1.6 1.6 0 0 0-1.462 0l-1.454.746a1.6 1.6 0 0 1-1.977-.42l-1.03-1.282a1.6 1.6 0 0 0-1.333-.595l-1.633.088a1.6 1.6 0 0 1-1.632-1.187l-.426-1.603a1.6 1.6 0 0 0-.972-1.083l-1.537-.592a1.6 1.6 0 0 1-1.006-1.743l.261-1.648a1.6 1.6 0 0 0-.446-1.38l-1.173-1.177a1.6 1.6 0 0 1-.21-1.998l.905-1.4a1.6 1.6 0 0 0 .151-1.44l-.596-1.56a1.6 1.6 0 0 1 .62-1.912l1.387-.903a1.6 1.6 0 0 0 .724-1.259l.086-1.662a1.6 1.6 0 0 1 1.347-1.498l1.62-.257a1.6 1.6 0 0 0 1.178-.858l.745-1.474a1.6 1.6 0 0 1 1.846-.822l1.576.426a1.6 1.6 0 0 0 1.43-.305l1.269-1.035Z"/>
    </g>
    <defs>
        <clipPath id="a">
            <path fill="#fff" d="M16 16h32v32H16z"/>
        </clipPath>
    </defs>
</svg>
