<svg xmlns="http://www.w3.org/2000/svg" width="64" height="64" fill="none">
    <rect width="64" height="64" fill="#E7F9F3" rx="19.7"/>
    <g clip-path="url(#a)">
        <path fill="#216E55" d="M31.39 17.98c.675-1.307 2.545-1.307 3.22 0l4.306 8.326c.172.334.444.606.778.778l8.325 4.305c1.308.676 1.308 2.546 0 3.222l-8.325 4.305a1.812 1.812 0 0 0-.778.778l-4.305 8.325c-.676 1.308-2.546 1.308-3.222 0l-4.305-8.325a1.813 1.813 0 0 0-.778-.778l-8.325-4.305c-1.308-.676-1.308-2.546 0-3.222l8.325-4.305c.334-.172.606-.444.778-.778l4.305-8.325Z"/>
    </g>
    <rect width="64" height="64" stroke="#fff" rx="19.7"/>
    <defs>
        <clipPath id="a">
            <path fill="#fff" d="M17 17h32v32H17z"/>
        </clipPath>
    </defs>
</svg>
