<svg xmlns="http://www.w3.org/2000/svg" width="64" height="64" fill="none">
    <rect width="64" height="64" fill="#FFF7E0" rx="19.2"/>
    <g clip-path="url(#a)">
        <path fill="#935F10" d="M36.357 33.65c2.98 1.127 6.99.922 9.544-.49L48 32l-2.099-1.16c-2.553-1.412-6.564-1.617-9.544-.49l-2.234.846c-.014-.045-.031-.088-.047-.132l2.171-.979c2.905-1.31 5.595-4.29 6.403-7.095l.664-2.304-2.305.664c-2.803.807-5.785 3.498-7.094 6.403l-.946 2.097a2.234 2.234 0 0 0-.132-.06l.812-2.147c1.128-2.98.922-6.99-.489-9.544L32 16l-1.16 2.099c-1.412 2.553-1.617 6.564-.49 9.544l.813 2.147c-.045.018-.088.04-.132.06l-.946-2.097c-1.31-2.905-4.29-5.596-7.095-6.403l-2.304-.664.664 2.305c.807 2.803 3.498 5.785 6.403 7.094l2.171.98c-.016.043-.033.087-.047.132l-2.234-.846c-2.98-1.128-6.99-.922-9.544.489L16 32l2.099 1.16c2.553 1.412 6.564 1.617 9.544.49l2.339-.886c.018.04.037.08.058.12l-2.287 1.03c-2.905 1.31-5.595 4.292-6.403 7.095l-.664 2.305 2.305-.664c2.803-.807 5.785-3.498 7.094-6.402l1.061-2.355c.04.017.08.03.12.044l-.915 2.42c-1.128 2.98-.922 6.99.489 9.544l1.16 2.1 1.16-2.1c1.412-2.553 1.617-6.564.49-9.544l-.917-2.42c.04-.014.081-.027.12-.044l1.062 2.354c1.31 2.905 4.29 5.595 7.094 6.403l2.305.664-.664-2.305c-.807-2.803-3.498-5.785-6.402-7.094l-2.287-1.031.057-.12 2.34.885Z"/>
    </g>
    <defs>
        <clipPath id="a">
            <path fill="#fff" d="M16 16h32v32H16z"/>
        </clipPath>
    </defs>
</svg>
