<svg xmlns="http://www.w3.org/2000/svg" width="64" height="64" fill="none">
    <rect width="64" height="64" fill="#EDEEFD" rx="19.2"/>
    <g clip-path="url(#a)">
        <path fill="#05128A" d="M27.45 18.614c2.044-3.485 7.082-3.485 9.127 0l.074.126a5.291 5.291 0 0 0 4.527 2.614h.147c4.04.029 6.559 4.392 4.563 7.905l-.072.128a5.291 5.291 0 0 0 0 5.226l.072.128c1.996 3.513-.523 7.876-4.563 7.904l-.147.001a5.292 5.292 0 0 0-4.527 2.614l-.074.126c-2.045 3.485-7.083 3.485-9.127 0l-.075-.126a5.291 5.291 0 0 0-4.526-2.614h-.147c-4.04-.029-6.56-4.392-4.564-7.905l.073-.128c.92-1.62.92-3.606 0-5.226l-.072-.128c-1.996-3.513.523-7.876 4.563-7.904l.147-.002a5.29 5.29 0 0 0 4.526-2.613l.075-.126Z"/>
    </g>
    <defs>
        <clipPath id="a">
            <path fill="#fff" d="M16 16h32v32H16z"/>
        </clipPath>
    </defs>
</svg>
