<svg xmlns="http://www.w3.org/2000/svg" width="64" height="64" fill="none">
    <rect width="64" height="64" fill="#FDF1F7" rx="19.2"/>
    <g clip-path="url(#a)">
        <path fill="#973562" d="M31.942 26.957c0-21.426 6.618-6.42 1.261 2.86 5.357-9.28 21.663-11.052 3.107-.338 18.556-10.714 8.87 2.52-1.846 2.52 10.712 0 20.402 13.234 1.846 2.522 18.556 10.712 2.25 8.94-3.107-.34 5.357 9.28-1.26 24.287-1.26 2.86 0 21.427-6.61 6.42-1.261-2.86-5.355 9.28-21.66 11.052-3.105.34-18.556 10.712-8.87-2.522 1.845-2.522-10.713 0-20.4-13.234-1.845-2.52-18.556-10.714-2.25-8.942 3.105.337-5.355-9.279 1.26-24.285 1.26-2.86Z"/>
    </g>
    <defs>
        <clipPath id="a">
            <path fill="#fff" d="M16 16h32v32H16z"/>
        </clipPath>
    </defs>
</svg>
