<svg width="117" height="56" viewBox="0 0 117 56" fill="none" xmlns="http://www.w3.org/2000/svg">
    <g clip-path="url(#clip0_9_35061)">
        <path d="M66.6788 26.6347C66.6788 27.3551 66.4818 27.9404 66.0878 28.3906C65.7051 28.8408 65.1874 29.1729 64.5345 29.3867C63.8817 29.6006 63.1613 29.7075 62.3734 29.7075H56.4811V17.7202H63.4371C63.9999 17.7202 64.4839 17.8721 64.8891 18.176C65.3056 18.4687 65.6207 18.8514 65.8346 19.3241C66.0597 19.7969 66.1722 20.2865 66.1722 20.793C66.1722 21.3445 66.0259 21.8792 65.7333 22.3969C65.4519 22.9147 65.0242 23.303 64.4501 23.5619C65.1367 23.7645 65.677 24.1191 66.0709 24.6256C66.4762 25.1321 66.6788 25.8018 66.6788 26.6347ZM63.3358 25.9594C63.3358 25.7568 63.2964 25.5823 63.2176 25.436C63.1501 25.2784 63.0544 25.1546 62.9306 25.0645C62.8068 24.9745 62.6605 24.9295 62.4916 24.9295H59.7734V26.9386H62.3734C62.5535 26.9386 62.7167 26.8992 62.8631 26.8204C63.0094 26.7416 63.1219 26.6291 63.2007 26.4828C63.2908 26.3364 63.3358 26.162 63.3358 25.9594ZM59.7734 20.5229V22.3632H62.0189C62.1652 22.3632 62.3059 22.3406 62.441 22.2956C62.576 22.2393 62.6886 22.1437 62.7786 22.0086C62.8687 21.8735 62.9137 21.6822 62.9137 21.4346C62.9137 21.2094 62.8743 21.035 62.7955 20.9112C62.728 20.7761 62.6323 20.6804 62.5085 20.6242C62.396 20.5566 62.2665 20.5229 62.1202 20.5229H59.7734ZM73.0342 29.8088C72.1225 29.8088 71.2952 29.64 70.5523 29.3023C69.8095 28.9534 69.1679 28.4919 68.6276 27.9179C68.0986 27.3326 67.6878 26.6797 67.3951 25.9594C67.1137 25.2277 66.973 24.4736 66.973 23.697C66.973 22.8978 67.125 22.138 67.4289 21.4177C67.7328 20.6973 68.1549 20.0557 68.6952 19.493C69.2467 18.9189 69.8939 18.4687 70.6368 18.1423C71.3909 17.8158 72.2126 17.6526 73.1018 17.6526C74.0135 17.6526 74.8408 17.8271 75.5837 18.176C76.3265 18.5137 76.9625 18.9752 77.4915 19.5605C78.0205 20.1458 78.4257 20.8042 78.7071 21.5359C78.9998 22.2562 79.1461 22.9991 79.1461 23.7645C79.1461 24.5524 78.9941 25.3065 78.6902 26.0269C78.3976 26.7473 77.9755 27.3945 77.424 27.9685C76.8837 28.5313 76.2421 28.9815 75.4992 29.3192C74.7564 29.6456 73.9347 29.8088 73.0342 29.8088ZM70.316 23.7307C70.316 24.1359 70.3723 24.5299 70.4848 24.9126C70.5974 25.284 70.7662 25.6217 70.9913 25.9256C71.2164 26.2182 71.4978 26.4546 71.8355 26.6347C72.1844 26.8035 72.5953 26.888 73.068 26.888C73.5407 26.888 73.9516 26.7979 74.3005 26.6178C74.6494 26.4377 74.9308 26.1957 75.1447 25.8918C75.3698 25.5767 75.533 25.2334 75.6343 24.8619C75.7469 24.4792 75.8031 24.0909 75.8031 23.697C75.8031 23.2918 75.7469 22.9034 75.6343 22.532C75.5217 22.1606 75.3529 21.8285 75.1278 21.5359C74.9027 21.232 74.6157 20.9956 74.2667 20.8268C73.9178 20.6579 73.5126 20.5735 73.0511 20.5735C72.5784 20.5735 72.1675 20.6635 71.8186 20.8436C71.4809 21.0237 71.1996 21.2657 70.9744 21.5696C70.7493 21.8623 70.5805 22.2 70.4679 22.5826C70.3666 22.9541 70.316 23.3368 70.316 23.7307ZM83.3273 23.8151V29.7075H80.035V17.7202H82.6013L87.4131 23.8151V17.7202H90.7054V29.7075H88.0885L83.3273 23.8151ZM97.491 29.8088C96.5343 29.8088 95.7126 29.6512 95.026 29.3361C94.3394 29.0209 93.7766 28.5876 93.3377 28.036C92.9099 27.4845 92.5948 26.8542 92.3922 26.1451C92.1896 25.4247 92.0883 24.6706 92.0883 23.8827V17.7202H95.3806V23.8827C95.3806 24.2766 95.42 24.6537 95.4988 25.0139C95.5776 25.3741 95.7014 25.6949 95.8702 25.9762C96.039 26.2576 96.2529 26.4828 96.5118 26.6516C96.7819 26.8092 97.1083 26.888 97.491 26.888C97.885 26.888 98.217 26.8092 98.4872 26.6516C98.7573 26.4828 98.9712 26.2576 99.1287 25.9762C99.2976 25.6836 99.4214 25.3572 99.5002 24.997C99.579 24.6368 99.6184 24.2654 99.6184 23.8827V17.7202H102.911V23.8827C102.911 24.7156 102.798 25.4923 102.573 26.2126C102.359 26.933 102.033 27.5633 101.594 28.1036C101.155 28.6439 100.592 29.0659 99.9054 29.3698C99.23 29.6625 98.4252 29.8088 97.491 29.8088ZM111.558 21.6372C111.558 21.6372 111.462 21.5809 111.271 21.4683C111.079 21.3558 110.826 21.232 110.511 21.0969C110.196 20.9506 109.853 20.8211 109.481 20.7086C109.11 20.596 108.744 20.5397 108.384 20.5397C108.102 20.5397 107.872 20.5848 107.691 20.6748C107.511 20.7648 107.421 20.9168 107.421 21.1307C107.421 21.3333 107.511 21.4965 107.691 21.6203C107.872 21.7441 108.125 21.8567 108.451 21.958C108.789 22.0593 109.188 22.1831 109.65 22.3294C110.393 22.5545 111.034 22.8134 111.575 23.106C112.115 23.3987 112.531 23.7758 112.824 24.2372C113.117 24.6875 113.263 25.2896 113.263 26.0438C113.263 26.7641 113.134 27.372 112.875 27.8672C112.616 28.3512 112.267 28.7395 111.828 29.0322C111.389 29.3248 110.899 29.5387 110.359 29.6738C109.819 29.7976 109.267 29.8595 108.704 29.8595C108.13 29.8595 107.528 29.8032 106.898 29.6906C106.279 29.5668 105.677 29.4036 105.091 29.201C104.506 28.9872 103.971 28.7395 103.487 28.4581L104.906 25.571C104.906 25.571 105.018 25.6386 105.243 25.7736C105.468 25.9087 105.767 26.0607 106.138 26.2295C106.51 26.3983 106.92 26.5503 107.371 26.6854C107.832 26.8204 108.294 26.888 108.755 26.888C109.115 26.888 109.363 26.8429 109.498 26.7529C109.644 26.6516 109.718 26.5222 109.718 26.3646C109.718 26.1282 109.594 25.9481 109.346 25.8243C109.098 25.6892 108.772 25.5654 108.367 25.4529C107.973 25.329 107.534 25.1883 107.05 25.0308C106.352 24.7944 105.778 24.5299 105.328 24.2372C104.878 23.9333 104.546 23.5788 104.332 23.1736C104.118 22.7571 104.011 22.2562 104.011 21.6709C104.011 20.7817 104.219 20.0389 104.636 19.4423C105.052 18.8457 105.598 18.3955 106.273 18.0916C106.96 17.7765 107.697 17.6189 108.485 17.6189C109.07 17.6189 109.633 17.692 110.173 17.8384C110.725 17.9734 111.237 18.1423 111.71 18.3449C112.194 18.5475 112.616 18.7388 112.976 18.9189L111.558 21.6372Z" fill="#1E1C4E"/>
        <path d="M64.3491 40.6544C64.3491 41.2253 64.193 41.6891 63.8808 42.0459C63.5775 42.4027 63.1672 42.6659 62.6498 42.8354C62.1324 43.0049 61.5615 43.0896 60.9371 43.0896H56.2674V33.5895H61.7801C62.2261 33.5895 62.6097 33.71 62.9308 33.9508C63.2608 34.1827 63.5106 34.486 63.6801 34.8607C63.8585 35.2353 63.9477 35.6234 63.9477 36.0248C63.9477 36.4619 63.8317 36.8856 63.5998 37.2959C63.3768 37.7062 63.0378 38.014 62.5829 38.2191C63.127 38.3797 63.5552 38.6607 63.8674 39.0621C64.1885 39.4635 64.3491 39.9943 64.3491 40.6544ZM61.6998 40.1192C61.6998 39.9586 61.6686 39.8203 61.6061 39.7044C61.5526 39.5795 61.4768 39.4814 61.3787 39.41C61.2805 39.3386 61.1646 39.303 61.0308 39.303H58.8765V40.8952H60.9371C61.0798 40.8952 61.2092 40.864 61.3252 40.8016C61.4411 40.7391 61.5303 40.6499 61.5928 40.534C61.6641 40.418 61.6998 40.2797 61.6998 40.1192ZM58.8765 35.8107V37.2691H60.6561C60.7721 37.2691 60.8836 37.2513 60.9906 37.2156C61.0977 37.171 61.1869 37.0952 61.2582 36.9882C61.3296 36.8811 61.3653 36.7295 61.3653 36.5332C61.3653 36.3548 61.3341 36.2166 61.2716 36.1184C61.2181 36.0114 61.1423 35.9356 61.0442 35.891C60.955 35.8374 60.8524 35.8107 60.7364 35.8107H58.8765ZM65.1042 43.0896V33.5895H67.7133V40.8149H72.0218V43.0896H65.1042ZM76.6939 43.1699C75.9713 43.1699 75.3157 43.0361 74.7269 42.7685C74.1382 42.4919 73.6298 42.1262 73.2016 41.6713C72.7823 41.2074 72.4567 40.6901 72.2248 40.1192C72.0018 39.5393 71.8903 38.9417 71.8903 38.3262C71.8903 37.6929 72.0107 37.0907 72.2516 36.5198C72.4924 35.9489 72.8269 35.4405 73.2551 34.9945C73.6922 34.5395 74.2051 34.1827 74.7938 33.9241C75.3915 33.6654 76.0427 33.536 76.7474 33.536C77.4699 33.536 78.1256 33.6743 78.7143 33.9508C79.303 34.2184 79.807 34.5841 80.2263 35.048C80.6455 35.5119 80.9666 36.0337 81.1897 36.6135C81.4216 37.1844 81.5375 37.7731 81.5375 38.3797C81.5375 39.0041 81.4171 39.6018 81.1763 40.1727C80.9443 40.7436 80.6098 41.2565 80.1727 41.7114C79.7446 42.1574 79.2361 42.5142 78.6474 42.7819C78.0587 43.0405 77.4075 43.1699 76.6939 43.1699ZM74.5396 38.353C74.5396 38.6741 74.5842 38.9863 74.6734 39.2896C74.7626 39.5839 74.8964 39.8516 75.0748 40.0924C75.2532 40.3243 75.4762 40.5116 75.7438 40.6544C76.0204 40.7882 76.346 40.8551 76.7206 40.8551C77.0953 40.8551 77.4209 40.7837 77.6974 40.641C77.9739 40.4983 78.1969 40.3065 78.3664 40.0656C78.5448 39.8159 78.6741 39.5438 78.7544 39.2494C78.8436 38.9461 78.8882 38.6384 78.8882 38.3262C78.8882 38.0051 78.8436 37.6973 78.7544 37.4029C78.6652 37.1086 78.5314 36.8454 78.353 36.6135C78.1746 36.3727 77.9471 36.1853 77.6706 36.0515C77.3941 35.9177 77.073 35.8508 76.7072 35.8508C76.3326 35.8508 76.007 35.9222 75.7305 36.0649C75.4629 36.2076 75.2399 36.3994 75.0614 36.6403C74.883 36.8722 74.7492 37.1398 74.66 37.4431C74.5798 37.7375 74.5396 38.0407 74.5396 38.353ZM81.7202 38.2593C81.7202 37.6795 81.8272 37.113 82.0413 36.56C82.2643 35.998 82.5854 35.4896 83.0047 35.0346C83.4239 34.5797 83.9324 34.2184 84.53 33.9508C85.1366 33.6743 85.819 33.536 86.5772 33.536C87.4871 33.536 88.281 33.7278 88.9589 34.1114C89.6369 34.486 90.1409 34.9856 90.4709 35.61L88.4772 37.0283C88.3613 36.7161 88.1918 36.4752 87.9688 36.3058C87.7547 36.1363 87.5183 36.0203 87.2596 35.9579C87.0099 35.8865 86.7646 35.8508 86.5237 35.8508C86.1491 35.8508 85.8235 35.9266 85.5469 36.0783C85.2793 36.221 85.0563 36.4128 84.8779 36.6536C84.7084 36.8945 84.5791 37.1621 84.4899 37.4565C84.4096 37.7508 84.3695 38.0452 84.3695 38.3396C84.3695 38.6696 84.4185 38.9863 84.5167 39.2896C84.6148 39.5929 84.7575 39.8649 84.9448 40.1058C85.1322 40.3377 85.3596 40.5206 85.6272 40.6544C85.9038 40.7882 86.2115 40.8551 86.5505 40.8551C86.7913 40.8551 87.0366 40.8194 87.2864 40.748C87.5362 40.6678 87.7636 40.5429 87.9688 40.3734C88.174 40.2039 88.3301 39.9764 88.4371 39.691L90.5646 40.9621C90.3773 41.426 90.0651 41.8229 89.628 42.153C89.1909 42.483 88.6958 42.7373 88.1427 42.9157C87.5897 43.0851 87.0411 43.1699 86.497 43.1699C85.7923 43.1699 85.1455 43.0316 84.5568 42.7551C83.977 42.4696 83.473 42.095 83.0448 41.6311C82.6256 41.1584 82.3 40.6321 82.0681 40.0523C81.8361 39.4635 81.7202 38.8659 81.7202 38.2593ZM91.0919 43.0896V33.5895H93.701V37.2022L96.5912 33.5895H99.5349L96.0827 37.8445L99.7757 43.0896H96.7785L94.4236 39.5973L93.701 40.3466V43.0896H91.0919Z" fill="#F5BF5B"/>
        <path d="M46.0823 4.66968H32.2609L39.1716 16.6809H52.993L46.0823 4.66968Z" fill="white"/>
        <path d="M39.1716 16.6809L32.2609 4.66968L25.4344 16.6809L32.2577 28.6022L32.2609 28.6076L39.1716 16.6809Z" fill="#1E1C4E"/>
        <path d="M25.4344 16.6809H11.5288L18.4625 28.6076H32.2609L32.2577 28.6022L25.4344 16.6809Z" fill="white"/>
        <path d="M18.4625 28.6076L11.5288 16.6809L4.64111 28.6921L11.5288 40.6188L18.4625 28.6076Z" fill="#1E1C4E"/>
        <path d="M32.2609 28.6076L39.1778 40.6188H52.993L46.1665 28.6921L32.2609 28.6076Z" fill="white"/>
        <path d="M25.2659 40.7034L32.1766 52.63L39.1778 40.6188L32.2609 28.6076L25.2659 40.7034Z" fill="#1E1C4E"/>
        <path d="M18.4625 28.6076L11.5288 40.6188L25.2659 40.7034L32.2609 28.6076H18.4625Z" fill="#F5BF5B"/>
        <path d="M52.993 16.6809H39.1716L32.2609 28.6076L46.1665 28.6921L52.993 16.6809Z" fill="#F5BF5B"/>
        <path d="M39.1778 40.6188L32.1766 52.63L45.5542 52.63L52.993 40.6188H39.1778Z" fill="#F5BF5B"/>
    </g>
    <defs>
        <clipPath id="clip0_9_35061">
            <rect width="117.015" height="56" fill="white"/>
        </clipPath>
    </defs>
</svg>
