<svg viewBox="0 0 24 24" xmlns="http://www.w3.org/2000/svg">
    <g stroke-linecap="round" stroke-width="1.5" stroke="currentColor" fill="none" stroke-linejoin="round">
        <path d="M10 9H6"/>
        <path d="M15.5 11a2.5 2.5 0 1 1 0-5 2.5 2.5 0 1 1 0 5Z"/>
        <path d="M6 6h3"/>
        <path d="m18 18-4.5-3-2.5 2-5-4"/>
    </g>
    <path fill="none" stroke="currentColor" stroke-width="1.5" d="M3 20.4V3.6c0-.34.26-.6.6-.6h16.8c.33 0 .6.26.6.6v16.8a.6.6 0 0 1-.6.6H3.6a.6.6 0 0 1-.6-.6Z"/>
</svg>