<svg xmlns="http://www.w3.org/2000/svg" fill="none" stroke-width="1.5" viewBox="0 0 24 24" class="icon-large my-auto">
    <path stroke="currentColor" stroke-linecap="round" stroke-linejoin="round" d="M18 21a2 2 0 1 0 0-4 2 2 0 0 0 0 4Z"/>
    <path stroke="currentColor" stroke-linecap="round" stroke-linejoin="round" d="M6 7a2 2 0 1 0 0-4 2 2 0 0 0 0 4Z"/>
    <path stroke="currentColor" stroke-linecap="round" stroke-linejoin="round" d="M18 17V7s0-2-2-2h-3"/>
    <path stroke="currentColor" stroke-linecap="round" stroke-linejoin="round" d="M6 7v10s0 2 2 2h3"/>
    <path stroke="currentColor" stroke-linecap="round" stroke-linejoin="round" d="M15 7.5 12.5 5 15 2.5"/>
    <path stroke="currentColor" stroke-linecap="round" stroke-linejoin="round" d="M8.5 16.5 11 19l-2.5 2.5"/>
</svg>