<svg width="128" height="128" viewBox="0 0 128 128" fill="none" xmlns="http://www.w3.org/2000/svg">
<path fill-rule="evenodd" clip-rule="evenodd" d="M63.8093 1C28.5244 1 0 29.7347 0 65.2834C0 93.6994 18.2766 117.753 43.631 126.266C46.801 126.906 47.9621 124.883 47.9621 123.181C47.9621 121.691 47.8576 116.583 47.8576 111.26C30.1074 115.092 26.4111 103.597 26.4111 103.597C23.5585 96.1471 19.3319 94.2323 19.3319 94.2323C13.5223 90.2944 19.7551 90.2944 19.7551 90.2944C26.1995 90.7202 29.5811 96.8929 29.5811 96.8929C35.2849 106.684 44.4761 103.917 48.1737 102.214C48.7014 98.0632 50.3928 95.1897 52.1887 93.5936C38.0317 92.1033 23.1367 86.5693 23.1367 61.8771C23.1367 54.8527 25.6705 49.1058 29.6856 44.6362C29.0521 43.0402 26.833 36.4403 30.3203 27.607C30.3203 27.607 35.7081 25.9038 47.8563 34.2056C53.0574 32.7984 58.4212 32.0826 63.8093 32.0766C69.1971 32.0766 74.6893 32.8224 79.761 34.2056C91.9105 25.9038 97.2983 27.607 97.2983 27.607C100.786 36.4403 98.5652 43.0402 97.9318 44.6362C102.053 49.1058 104.482 54.8527 104.482 61.8771C104.482 86.5693 89.5869 91.9962 75.3241 93.5936C77.649 95.6155 79.6552 99.4464 79.6552 105.513C79.6552 114.134 79.5507 121.052 79.5507 123.18C79.5507 124.883 80.7132 126.906 83.8818 126.268C109.236 117.752 127.513 93.6994 127.513 65.2834C127.617 29.7347 98.9884 1 63.8093 1Z" fill="white"/>
</svg>
