<svg xmlns="http://www.w3.org/2000/svg" viewBox="0 0 28 28" fill="none">
    <path stroke="currentColor" stroke-linecap="round" stroke-linejoin="round" stroke-width="1.5" d="M14 25.667c6.443 0 11.666-5.224 11.666-11.667S20.443 2.333 14 2.333C7.556 2.333 2.333 7.557 2.333 14S7.556 25.667 14 25.667Z"/>
    <path stroke="currentColor" stroke-linecap="round" stroke-linejoin="round" stroke-width="1.5" d="m2.917 14.583 6.417 2.334L8.167 21l1.167 3.5"/>
    <path stroke="currentColor" stroke-linecap="round" stroke-linejoin="round" stroke-width="1.5" d="M19.833 23.917 19.25 21l-2.917-1.167V15.75l3.5-1.167 5.25.584"/>
    <path stroke="currentColor" stroke-linecap="round" stroke-linejoin="round" stroke-width="1.5" d="m22.167 6.417-.584 1.75-4.083.583v3.5l2.917-1.167h2.333l2.333 1.167"/>
    <path stroke="currentColor" stroke-linecap="round" stroke-linejoin="round" stroke-width="1.5" d="m2.917 12.25 2.917-2.333 2.916-.584 2.334-3.5L9.917 3.5"/>
</svg>
