<svg width="128" height="128" viewBox="0 0 128 128" fill="none" xmlns="http://www.w3.org/2000/svg">
<g clip-path="url(#clip0_180_12250)">
<mask id="mask0_180_12250" style="mask-type:luminance" maskUnits="userSpaceOnUse" x="0" y="0" width="128" height="128">
<path d="M128 0H0V128H128V0Z" fill="white"/>
</mask>
<g mask="url(#mask0_180_12250)">
<path d="M98.9091 0H29.0909C13.0244 0 0 13.0244 0 29.0909V98.9091C0 114.976 13.0244 128 29.0909 128H98.9091C114.976 128 128 114.976 128 98.9091V29.0909C128 13.0244 114.976 0 98.9091 0Z" fill="url(#paint0_linear_180_12250)"/>
<path d="M98.9091 0H29.0909C13.0244 0 0 13.0244 0 29.0909V98.9091C0 114.976 13.0244 128 29.0909 128H98.9091C114.976 128 128 114.976 128 98.9091V29.0909C128 13.0244 114.976 0 98.9091 0Z" fill="url(#paint1_radial_180_12250)"/>
<path d="M52.0078 98.9091V69.2746L80.2764 98.9091H96.0002V98.1401L63.4888 64.4017L93.4926 32.3846V32H77.6674L52.0078 60.2916V32H39.2729V98.9091H52.0078Z" fill="white"/>
</g>
</g>
<defs>
<linearGradient id="paint0_linear_180_12250" x1="86.5455" y1="12.3636" x2="74.9091" y2="136.727" gradientUnits="userSpaceOnUse">
<stop stop-color="#02C2E8"/>
<stop offset="1" stop-color="#283FE3"/>
</linearGradient>
<radialGradient id="paint1_radial_180_12250" cx="0" cy="0" r="1" gradientUnits="userSpaceOnUse" gradientTransform="translate(125.818 124.364) rotate(-135.713) scale(123.946)">
<stop stop-color="#9171FF"/>
<stop offset="1" stop-color="#8663FE" stop-opacity="0"/>
</radialGradient>
<clipPath id="clip0_180_12250">
<rect width="128" height="128" fill="white"/>
</clipPath>
</defs>
</svg>
