<svg width="128" height="128" viewBox="0 0 128 128" fill="none" xmlns="http://www.w3.org/2000/svg">
<path d="M110.122 14.2625L70.147 43.9523L77.5393 26.4357L110.122 14.2625Z" fill="#E2761B" stroke="#E2761B" stroke-linecap="round" stroke-linejoin="round"/>
<path d="M17.8379 14.2625L57.4914 44.2336L50.4606 26.4357L17.8379 14.2625Z" fill="#E4761B" stroke="#E4761B" stroke-linecap="round" stroke-linejoin="round"/>
<path d="M95.7389 83.0835L85.0923 99.3949L107.872 105.662L114.421 83.4451L95.7389 83.0835Z" fill="#E4761B" stroke="#E4761B" stroke-linecap="round" stroke-linejoin="round"/>
<path d="M13.6196 83.4451L20.1281 105.662L42.9078 99.3949L32.2612 83.0835L13.6196 83.4451Z" fill="#E4761B" stroke="#E4761B" stroke-linecap="round" stroke-linejoin="round"/>
<path d="M41.6222 55.5229L35.2744 65.1249L57.8934 66.1293L57.0899 41.823L41.6222 55.5229Z" fill="#E4761B" stroke="#E4761B" stroke-linecap="round" stroke-linejoin="round"/>
<path d="M86.3378 55.5229L70.6693 41.5417L70.147 66.1293L92.7258 65.1249L86.3378 55.5229Z" fill="#E4761B" stroke="#E4761B" stroke-linecap="round" stroke-linejoin="round"/>
<path d="M42.9077 99.3948L56.4871 92.7658L44.7558 83.6057L42.9077 99.3948Z" fill="#E4761B" stroke="#E4761B" stroke-linecap="round" stroke-linejoin="round"/>
<path d="M71.4727 92.7658L85.0922 99.3948L83.204 83.6057L71.4727 92.7658Z" fill="#E4761B" stroke="#E4761B" stroke-linecap="round" stroke-linejoin="round"/>
<path d="M85.0922 99.3949L71.4727 92.7659L72.5574 101.645L72.4369 105.381L85.0922 99.3949Z" fill="#D7C1B3" stroke="#D7C1B3" stroke-linecap="round" stroke-linejoin="round"/>
<path d="M42.9077 99.3949L55.5631 105.381L55.4827 101.645L56.4871 92.7659L42.9077 99.3949Z" fill="#D7C1B3" stroke="#D7C1B3" stroke-linecap="round" stroke-linejoin="round"/>
<path d="M55.7641 77.7401L44.4346 74.4055L52.4295 70.7495L55.7641 77.7401Z" fill="#233447" stroke="#233447" stroke-linecap="round" stroke-linejoin="round"/>
<path d="M72.1958 77.7401L75.5304 70.7495L83.5655 74.4055L72.1958 77.7401Z" fill="#233447" stroke="#233447" stroke-linecap="round" stroke-linejoin="round"/>
<path d="M42.9078 99.3949L44.8362 83.0835L32.2612 83.4451L42.9078 99.3949Z" fill="#CD6116" stroke="#CD6116" stroke-linecap="round" stroke-linejoin="round"/>
<path d="M83.1641 83.0835L85.0925 99.3949L95.7391 83.4451L83.1641 83.0835Z" fill="#CD6116" stroke="#CD6116" stroke-linecap="round" stroke-linejoin="round"/>
<path d="M92.7258 65.125L70.147 66.1294L72.2361 77.7402L75.5707 70.7496L83.6059 74.4056L92.7258 65.125Z" fill="#CD6116" stroke="#CD6116" stroke-linecap="round" stroke-linejoin="round"/>
<path d="M44.4345 74.4056L52.4696 70.7496L55.7641 77.7402L57.8934 66.1294L35.2744 65.125L44.4345 74.4056Z" fill="#CD6116" stroke="#CD6116" stroke-linecap="round" stroke-linejoin="round"/>
<path d="M35.2744 65.125L44.7559 83.6059L44.4345 74.4056L35.2744 65.125Z" fill="#E4751F" stroke="#E4751F" stroke-linecap="round" stroke-linejoin="round"/>
<path d="M83.6059 74.4056L83.2041 83.6059L92.7258 65.125L83.6059 74.4056Z" fill="#E4751F" stroke="#E4751F" stroke-linecap="round" stroke-linejoin="round"/>
<path d="M57.8935 66.1294L55.7642 77.7402L58.4158 91.4401L59.0184 73.4012L57.8935 66.1294Z" fill="#E4751F" stroke="#E4751F" stroke-linecap="round" stroke-linejoin="round"/>
<path d="M70.1468 66.1294L69.062 73.361L69.5441 91.4401L72.2359 77.7402L70.1468 66.1294Z" fill="#E4751F" stroke="#E4751F" stroke-linecap="round" stroke-linejoin="round"/>
<path d="M72.2362 77.7401L69.5444 91.44L71.4729 92.7658L83.2042 83.6058L83.606 74.4055L72.2362 77.7401Z" fill="#F6851B" stroke="#F6851B" stroke-linecap="round" stroke-linejoin="round"/>
<path d="M44.4346 74.4055L44.756 83.6058L56.4873 92.7658L58.4157 91.44L55.7641 77.7401L44.4346 74.4055Z" fill="#F6851B" stroke="#F6851B" stroke-linecap="round" stroke-linejoin="round"/>
<path d="M72.4369 105.381L72.5574 101.645L71.553 100.761H56.4068L55.4827 101.645L55.5631 105.381L42.9077 99.3948L47.327 103.011L56.2862 109.238H71.6736L80.6729 103.011L85.0923 99.3948L72.4369 105.381Z" fill="#C0AD9E" stroke="#C0AD9E" stroke-linecap="round" stroke-linejoin="round"/>
<path d="M71.4729 92.7657L69.5444 91.4399H58.4157L56.4873 92.7657L55.4829 101.645L56.4069 100.761H71.5532L72.5576 101.645L71.4729 92.7657Z" fill="#161616" stroke="#161616" stroke-linecap="round" stroke-linejoin="round"/>
<path d="M111.809 45.8808L115.224 29.4891L110.122 14.2625L71.4727 42.948L86.3377 55.523L107.35 61.6699L112.01 56.2461L110.001 54.7998L113.215 51.867L110.724 49.9385L113.938 47.4878L111.809 45.8808Z" fill="#763D16" stroke="#763D16" stroke-linecap="round" stroke-linejoin="round"/>
<path d="M12.7759 29.4891L16.1908 45.8808L14.0213 47.4878L17.2354 49.9385L14.7847 51.867L17.9987 54.7998L15.9899 56.2461L20.6102 61.6699L41.6221 55.523L56.4871 42.948L17.838 14.2625L12.7759 29.4891Z" fill="#763D16" stroke="#763D16" stroke-linecap="round" stroke-linejoin="round"/>
<path d="M107.35 61.6698L86.3378 55.5229L92.7258 65.125L83.2041 83.6058L95.7389 83.4451H114.421L107.35 61.6698Z" fill="#F6851B" stroke="#F6851B" stroke-linecap="round" stroke-linejoin="round"/>
<path d="M41.6221 55.5229L20.6102 61.6698L13.6196 83.4451H32.2612L44.7558 83.6058L35.2744 65.125L41.6221 55.5229Z" fill="#F6851B" stroke="#F6851B" stroke-linecap="round" stroke-linejoin="round"/>
<path d="M70.1471 66.1292L71.4729 42.9478L77.5796 26.4355H50.4609L56.4873 42.9478L57.8935 66.1292L58.3756 73.4412L58.4157 91.4399H69.5444L69.6248 73.4412L70.1471 66.1292Z" fill="#F6851B" stroke="#F6851B" stroke-linecap="round" stroke-linejoin="round"/>
</svg>
